<?xml version='1.0' encoding='utf-8'?>
<svg xmlns="http://www.w3.org/2000/svg" version="1.1" viewBox="0 0 1024 1024"> <path d="m1024 0v1024h-1024v-1024h1024z" fill="#fff"/> <path d="m763.93 370.28q10.92 43.3 42.62 74.43 7.48 7.34 8.7 8.42c16.14 14.15 32.06 27.66 47.69 43.17q25.5 25.29 44.22 55.72c32.93 54.97 42.78 123.93 14.01 183.11-25.56 52.58-73.78 85.71-129.38 101.14q-25.32 7.03-55.58 9.6-15.57 0.33-55.71 0.59-83.23 0.56-167.34 24.54-28.87 7.59-44.78 11.11-28.5 6.3-62.38 9.14-31.34 2.63-65.81 0.07-52.1-3.87-99.77-23.74c-54.85-22.88-100.7-63.36-127.57-116.13-16.32-32.07-24.94-67.86-26.85-103.95q-2.83-53.44 8.45-101.77c10.29-44.11 31.83-84.91 64.11-117.18 23.26-23.24 50.38-41.16 80.79-55.71q24.74-11.84 56.3-23.61 24.31-9.07 32.27-12.75 46.87-21.7 79.47-62.76 2.32-2.27 4.25-4.83 18.32-24.36 34.7-50.05 16.54-24.89 37.18-43.31c45.44-40.54 107.04-55.24 165.52-35.8 32.49 10.79 62.57 33.29 80.96 62.46 16.28 25.83 24.33 55.11 25.19 85.32 0.84 29.01 2.12 55.48 8.74 82.77z" fill="#050104"/> <path d="m756.12 341.13q-6.2-16.4-8.8-32.01-5.78-34.73-6.62-39.29c-1.61-8.7-4.19-18.51-6.67-25.58-12.78-36.29-37.8-67.44-71.88-85.33q-9.39-4.93-13.21-6.59-34.86-15.22-72.79-12.16-11.77 0.95-16.37 1.87-22.22 4.47-42.31 13.38-1.48 0.66-3 0.06c26.92-15.47 58.85-23.92 89.83-22.26q57.85 3.1 100.34 41.69c27.49 24.97 43.57 60.42 47.5 97.42q0.87 8.27 1.74 35.17 0.25 7.68 2.24 33.63z" fill="#fff"/> <path d="m756.12 341.13q2.76 17.62 5.6 28.87 12.26 48.46 49.37 81.92 9.31 8.4 31.41 27.83c22.81 20.06 43.72 42.82 60.34 69.13q12.94 20.48 20.17 40.66 0.76 10.72 1.94 21 1.77 15.37 1.98 20.99 2.18 57.98-27.12 108.54-1.17 2.01-1.02 4.32l-80.11 0.04a0.61 0.6-3.8 0 1-0.6-0.52l-13.76-99.9a0.58 0.58 0 0 1 0.58-0.66h20.87a0.77 0.77 0 0 0 0.77-0.77v-12.47a1.22 1.22 0 0 0-1.22-1.22h-3.23a0.69 0.67 87.2 0 1-0.67-0.62c-0.26-3.11 0.89-6.93-1.85-9.64q-1.24-1.22-5.47-1.23-183.03-0.27-215.85-0.16-20.98 0.07-21.55 0.07c-6.24-0.03-6.27 5.92-5.48 10.93a0.59 0.59 0 0 1-0.58 0.68h-4.05a0.7 0.7 0 0 0-0.7 0.7v12.84a0.93 0.93 0 0 0 0.93 0.93h20.32a0.73 0.72 4.1 0 1 0.72 0.82l-14.07 99.58a0.63 0.62 3.2 0 1-0.61 0.54l-34.24 0.32q-1.46 0.12-2.72-0.22a0.56 0.55 13.8 0 1-0.4-0.65q4.9-23.25-12.98-38.83a1.29 1.26 22 0 1-0.45-1.03q0.02-0.67 0.49-3.9c1.09-7.37 1.06-17.09-4.06-23.54a2.11 2.1 25.6 0 1-0.45-1.27c-0.04-5.76-0.92-9.49-2.42-17.91-0.84-4.67-0.81-9.02-0.33-13.33 2.04-18.59 6.12-38.87 9.34-57.24q2.25-12.83 0.5-29.24-0.38-3.51-0.15-4.38c4-15.72 4.93-27.49 7.01-47.35 0.12-1.14 0.57-3.51 1.23-5.11 5.42-13.05 9.46-24.97 5.02-38.99q-0.49-1.55-0.35-2.31c0.49-2.62 3.64-4.79 5.9-6.22q8.13-5.18 16.41-9.81a0.94 0.94 0 0 1 1.28 0.37q2.46 4.55 6.94 8.75 4.06 3.8 8.56 2.1c2.58-0.98 4.4-4.87 7.64-5.57a1.76 1.72 13.1 0 0 0.97-0.59q1.16-1.41 4.23-3.37c1.12-0.71 1.92-2.15 2.5-2.85a1.03 1 24.1 0 1 0.96-0.35c4.29 0.75 7.27 3.52 7.8-3.37q0.46-5.85 0.97-9.11a8.06 8.03 71.1 0 1 2.04-4.18q0.43-0.46 3.96-4.01c3.26-3.26 5.98-10 7.06-14.56a3.14 3.1 74.1 0 1 0.79-1.44q2.5-2.58 2.81-7.64c1.09-18.09-14.1-37.73-32.73-38.34a0.68 0.67-4.9 0 1-0.64-0.53q-0.5-2.29-2.35-8.43-2.04-6.81-8.79-10.5c-10.4-5.69-22.72-1.48-30.37 6.74-10.09 10.84-12.16 24.23-15.62 39.55q-2.54 11.24-8.11 19.38c-4.35 6.36-12.14 11.62-20.13 9.81a0.89 0.89 0 0 0-0.85 1.48q4.8 5.18 11.91 6.87a0.37 0.36 49.9 0 1-0.06 0.72q-21.19 1.22-40.67 10.43-7.02 3.32-12.36 5.75c-10.47 4.78-21.3 11-31.37 14.93q-11.69 4.57-18.07 5.98-8.61 1.91-29.77 5.99c-22.68 4.37-43.22 15.8-50.43 38.81-5.12 16.32 0.21 33.4 7.84 47.9 11.93 22.72 26.89 44.43 42.41 64.45q6.82 8.8 10.85 14.77c3.69 5.46 5.89 10.9 3.58 17.29q-1.92 5.31-6.1 16.9-6.71 18.63-3.61 37.72 3.77 23.27 5.43 38.9a0.45 0.45 0 0 1-0.45 0.5l-15.78 0.1-77.27-0.29-28.91-0.02a0.85 0.84 4.9 0 1-0.83-0.98l5.17-32.28a1.02 1.02 0 0 1 0.47-0.69q0.56-0.33 1.47-0.48a1.67 1.56-3.6 0 0 1.39-1.47q0.21-3.62 0.39-8.66 0.1-2.67-3.18-2.64-24.84 0.22-25.92 0.21a0.39 0.39 0 0 1-0.36-0.54c3.08-7.21 7.61-13.89 14.4-17.73a0.96 0.95-29.9 0 1 1.29 0.34c3.79 6.41 9.11 12.74 17.58 10.79q6.25-1.43 7.27-1.53c9.42-0.87 15.65 4.4 22.77 9.52q0.86 0.62 2.04 1.07a1.49 1.49 0 0 0 2.02-1.27q0.15-1.94-0.65-3.96c-4.15-10.61-11.23-19.62-21.96-24.33q-9.3-4.09-18.92-1.69c-3.81 0.96-8.05 3.26-9.93 6.83q-0.63 1.19-1.08 1.82a2.66 2.61 3.5 0 1-0.91 0.79c-8.41 4.51-11.84 11.22-15.8 19.49a0.92 0.92 0 0 1-1.74-0.46q0.29-4.42 1.29-8.36 2.98-11.71 7.91-21.82 2.46-5.04 3.86-6.71a1.04 1.02-69.1 0 1 0.81-0.37q3.5 0.13 27.19 0.12c4.64 0 12.37-1.11 14.35-5.93q1.89-4.63 2.47-5.81c2.69-5.44 7.38-2.37 10.77 0.07a2.94 2.81-22 0 0 1.28 0.51c5.51 0.8 12.29-2.86 16.83-5.53a2.25 2.24 64.1 0 0 0.95-2.76q-0.52-1.35-2.28-2.96c-6.21-5.7-14.72-10.25-23.12-10.17-3.66 0.04-7.3 1.04-11.13 1.03q-1.22 0-2.92-1.12-3.04-2-7.42-1.17c-15.05 2.83-26.76 14.52-28.33 30.17a5.36 5.35-26.2 0 1-0.8 2.35q-11.09 17.73-13.34 38.99a0.18 0.16-9.1 0 1-0.11 0.14q-0.78 0.32-1.48 0.25a0.21 0.21 0 0 1-0.19-0.22q2.14-35.21 13.98-68.12a0.76 0.76 0 0 1 0.67-0.5q14.16-0.63 23.84-6.48c14.29-8.62 23.45-18.86 26.9-34.77 1.07-4.91-0.4-6.94-2.64-10.82q-0.86-1.51 0.79-4.29l8.85-4.74a4.41 4.15-78.7 0 0 0.73-0.52q6.18-5.59 9.07-13.53a1.36 1.35-70.2 0 0-0.81-1.74q-0.73-0.26-2.2-0.15-8.01 0.62-15.72 3.41-8.86 2.9-16.52 8.42c-6.07 4.38-8.49 10.25-11.53 16.67-0.76 1.6-4.26 3.21-5.98 1.34q-1.13-1.23-1.65-2.03a2.37 2.37 0 0 0-3.12-0.8q-2.37 1.28-4.27 3.5-13.8 16.03-10.21 36.78 0.73 4.23 2.55 7.83a1.56 1.54 42.7 0 1 0.06 1.3c-8.43 20.84-12.7 43.98-14.6 66.4q-0.19-43.38-0.17-47.62c0.1-31.59 2.98-62.63 10.6-93.04a0.94 0.91 87.1 0 1 0.55-0.63q20.67-8.3 36.19-24.93c4.78-5.13 8.05-11 10.41-17.21 1.61-4.24 1.83-8.77-0.23-12.86-1.37-2.72-3.47-5.53-4.11-8.54q-1.08-5.1 0.53-9.37c5.22-13.82 10.79-26.74 10.56-41.39q-0.02-1.68-0.49-2.6a1.99 1.99 0 0 0-2.36-1.01c-13.05 4-29.32 14.38-31.95 28.77-1.38 7.52 3.45 18.31-5.1 22.45q-1.31 0.63-4.91 0.34-6.81-0.55-11.1 6.14c-11.24 17.5-12.98 42.04-0.12 59.4a1.36 1.35 34.3 0 1 0.22 1.14c-6.45 25.94-9.42 52.6-10.52 79.14-0.48 11.58 0.22 25.92 0.29 36.83a0.15 0.15 0 0 1-0.14 0.15h-0.03a0.19 0.18-3.1 0 1-0.2-0.17q-2.03-24.84-5.09-42.59-2.47-14.34-9.07-34.79a1.56 1.56 0 0 1 0.15-1.31c5.51-9.03 4.95-19.1 1.56-28.74q-4.08-11.6-10.73-20.54-2.56-3.46-5.57-4.7-3.42-1.42-6.14 2.27-1 1.35-2.32 0.79c-2.12-0.9-2.63-4.52-3.46-7.63-1.52-5.69-4.07-8.94-8.96-12.83q-14.26-11.38-31.26-17.92c-3.07-1.19-6.15-2.55-9.49-3.16a1.29 1.29 0 0 0-1.47 1.64q3.71 12.1 11.7 22.07c3.97 4.94 11.47 7.32 9.5 15.5q-0.27 1.08-2.41 5.49a3.38 3.28 59.5 0 0-0.33 1.36q-0.12 4.05 0.97 6.63c4.28 10.15 12.4 21.23 21.41 27.81 9.15 6.67 22.83 13.92 34.32 13.62a1 0.98 79.5 0 1 0.96 0.67c8.06 23.42 11.47 47.62 13.25 72.48q0.18 2.54 1.08 8.02c1.25 7.61 1.23 15.44 1.34 23.09a0.29 0.29 0 0 1-0.33 0.29l-0.35-0.05a0.17 0.16-86.2 0 1-0.14-0.17q0.55-16.57-3.18-31.88c-3.08-12.64-6.39-23.58-13.46-34.23q-0.31-0.46-3.44-4.73a5.03 4.89-68.8 0 1-0.88-2.08c-1.53-8.96-6.36-21.57-15.78-24.95a6.24 6.19 48 0 0-3.55-0.2c-4.53 1.1-10.09 3.5-14.3-1.06-2.23-2.41-4.51-4.46-8.1-5.26q-13.35-2.98-24.59 4.88c-3.6 2.52-5.86 5.62-9.71 8.04-7.4 4.65-13.35 8.91-17.38 16.03a2.07 2.06-62.6 0 0 0.91 2.89q4.73 2.24 10.05 1.05c4.03-0.9 9.51-4.81 13.56-5.65q8.66-1.8 14.28 5.15 3.71 4.59 4.66 5.57c6.36 6.52 16.73 7.99 25.48 6.99 8.7-1.01 18.69-2.68 23.67-10.27a0.31 0.31 0 0 1 0.52-0.01c2.89 4.11 5.57 8.1 7.7 12.69 8.32 17.93 11.58 37.19 11.81 56.96a0.56 0.56 0 0 1-0.64 0.56l-0.12-0.02a0.78 0.78 0 0 1-0.66-0.75c-0.2-10.39-2.58-20.9-10.64-27.92q-1.21-1.05-5.54-2.64-2.5-0.91-5.28-2.3c-8.87-4.45-19.29-0.56-25.91 6.2-9.56 9.75-12.45 25.78-8.04 38.52a1.06 1.06 0 0 0 1.94 0.14q4.84-9.39 11.92-17.15 3.51-3.85 8.68-6.12c3.64-1.6 9.47-1.4 13.17-3.03 5.9-2.61 6.62-8.66 4.01-13.95a0.25 0.25 0 0 1 0.33-0.33c10.6 4.86 13.22 18.05 13.71 28.91a0.63 0.62-1.3 0 1-0.63 0.65h-30.86a1.52 1.52 0 0 0-1.52 1.52v9.87a1.09 1.09 0 0 0 1.06 1.09q0.55 0.02 1.9 0.32a0.4 0.4 0 0 1 0.31 0.33l5.6 33.22a0.62 0.62 0 0 1-0.61 0.72l-83.08-0.01 2.49-0.46a0.81 0.8 75.1 0 0 0.61-1.06q-2.34-6.6-5.56-12.96c-3.65-7.21-7.1-15.03-9.29-21.23-8.13-23.08-14.27-46.92-16.57-71.42q-2-21.43-1.91-42.18 0.01-2.11-1.13-6.42 3.38-39.08 16.58-74.41 24.04-64.39 78.86-106.17 20.22-15.41 41.36-26.38 30.15-15.66 64.22-28.27c14.46-5.36 30.15-10.97 43.53-17.55q35.96-17.67 63.33-47.35 17.1-18.53 31.19-39.32 12.91-19.05 23.12-34.36 2.28-3.4 5.73-8 23.5-31.33 57.12-51.4 1.52 0.6 3-0.06 20.09-8.91 42.31-13.38 4.6-0.92 16.37-1.87 37.93-3.06 72.79 12.16 3.82 1.66 13.21 6.59c34.08 17.89 59.1 49.04 71.88 85.33 2.48 7.07 5.06 16.88 6.67 25.58q0.84 4.56 6.62 39.29 2.6 15.61 8.8 32.01z" fill="#f2e6f4"/> <path d="m446.34 218.84q-16.38 25.69-34.7 50.05-1.93 2.56-4.25 4.83 0.54-4.33 3.55-8.28c5.02-6.57 9.2-12.23 13.83-19.09q10.54-15.6 14.3-20.52 2.08-2.72 7.27-6.99z" fill="#f2e6f4"/> <path d="m663.79 272.17-0.6 2.1c-7.31-7.77-17.56-8.83-27.32-4.04a0.74 0.74 0 0 1-1.03-0.88q2.4-7.83 0.44-14.57c-3.13-10.73-12.33-16.77-23.41-14.85-8.65 1.5-15.4 8.02-17.02 16.73a0.89 0.89 0 0 1-1.29 0.63c-9.07-4.76-19.04-0.16-21.66 9.61q-0.68 2.53-0.97 4.86a0.95 0.95 0 0 1-1.68 0.47c-7.46-9.37-20.8-8.39-26.28 2.41a0.71 0.71 0 0 1-1.14 0.17q-7.39-7.74-17.84-4.08-5.17 1.81-8.2 7.31l-1.61-0.54q2.65-5.51 8.27-8.03 10.5-4.7 18.97 2.59a0.76 0.75-53.7 0 0 1.14-0.18c5.58-8.91 18.2-10.95 25.87-3.41a0.66 0.66 0 0 0 1.11-0.36c1.86-10.86 12.78-17.54 23.07-13.12a0.61 0.6-70.4 0 0 0.82-0.39c5.97-21.2 35.7-23.08 43.39-2.1q2.51 6.88 0.89 14.41a0.29 0.28-4.7 0 0 0.38 0.32q14.38-5.3 25.7 4.94z" fill="#4e3b5e"/> <path d="m663.19 274.27 4.34 7.82a0.46 0.46 0 0 1-0.41 0.68h-152.36a0.62 0.62 0 0 1-0.57-0.86l1.6-3.87q3.03-5.5 8.2-7.31 10.45-3.66 17.84 4.08a0.71 0.71 0 0 0 1.14-0.17c5.48-10.8 18.82-11.78 26.28-2.41a0.95 0.95 0 0 0 1.68-0.47q0.29-2.33 0.97-4.86c2.62-9.77 12.59-14.37 21.66-9.61a0.89 0.89 0 0 0 1.29-0.63c1.62-8.71 8.37-15.23 17.02-16.73 11.08-1.92 20.28 4.12 23.41 14.85q1.96 6.74-0.44 14.57a0.74 0.74 0 0 0 1.03 0.88c9.76-4.79 20.01-3.73 27.32 4.04z" fill="#dec5e5"/> <path d="m371.39 253.13c8.75-2.96 15.99 0.89 14.41 10.98-1.15 7.34-4.75 13.21-9.24 19.2-8.84 11.78-20.67 21.27-33.22 29.32q-9.04 5.8-18.81 9.87c-6.32 2.64-22.64 7.1-27.82 1.1q-2.82-3.27-1.97-7.8c2.87-15.5 20.32-22.52 31.43-30.16q14.37-9.86 28.57-22.63 7.61-6.83 16.65-9.88z" fill="#f2e6f4"/> <path d="m663.79 272.17q4.27 4.95 5.4 11.21a0.84 0.84 0 0 1-0.83 0.99h-154.84a0.95 0.95 0 0 1-0.95-1.04q0.3-3.22 1.61-5.83l1.61 0.54-1.6 3.87a0.62 0.62 0 0 0 0.57 0.86h152.36a0.46 0.46 0 0 0 0.41-0.68l-4.34-7.82 0.6-2.1z" fill="#442f68"/> <path d="m837.21 426.44q-8.76 0.32-16.2-4.41c-5.35-3.4-9.6-6.43-13.92-11.15-16.25-17.77-25.83-38.54-31.19-63.03q-3.55-16.25-2.3-32.98c0.94-12.59 5.89-29.99 21.35-31.24 9.2-0.74 18.62 5.01 25.22 11.47 17.39 17.02 28.35 41.16 34.53 65.19q4.44 17.3 4.08 34.69c-0.29 13.95-5.23 30.87-21.57 31.46z" fill="#f2e6f4"/> <path d="m486.94 316.29q0.03 1.05 0.54 1.7-0.66 0.69-1.44 0.66a0.98 0.98 0 0 1-0.82-0.5c-1.2-2.13-2.3-4.46-4.06-6.17q-4.31-4.21-10.1-4.82-14.99-1.58-20.12 13.32a0.87 0.86-71.3 0 1-1.08 0.54c-6.35-2.05-12.83-1.3-16.32 5.23a0.47 0.46 13.7 0 0 0.42 0.68l24.5-0.07 2.51 1.5-28.75 0.23a0.64 0.64 0 0 1-0.64-0.75c1.36-8.16 10.06-11.15 17.33-8.67a0.87 0.87 0 0 0 1.13-0.61c1.88-7.59 8.3-12.04 15.88-13.09q12.95-1.79 20.1 10.51 0.32 0.56 0.92 0.31z" fill="#4e3b5e"/> <path d="m487.48 317.99q7.5-3.35 13.52 1.76c1.37 1.17 2.06 2.45 3.04 3.94a1.41 1.4-27.6 0 0 1.7 0.53q4.39-1.76 8.41 1.51a0.57 0.57 0 0 1-0.36 1.02l-55.33 0.11-24.5 0.07a0.47 0.46 13.7 0 1-0.42-0.68c3.49-6.53 9.97-7.28 16.32-5.23a0.87 0.86-71.3 0 0 1.08-0.54q5.13-14.9 20.12-13.32 5.79 0.61 10.1 4.82c1.76 1.71 2.86 4.04 4.06 6.17a0.98 0.98 0 0 0 0.82 0.5q0.78 0.03 1.44-0.66z" fill="#dec5e5"/> <path d="m460.97 328.36-2.51-1.5 55.33-0.11a0.57 0.57 0 0 0 0.36-1.02q-4.02-3.27-8.41-1.51a1.41 1.4-27.6 0 1-1.7-0.53c-0.98-1.49-1.67-2.77-3.04-3.94q-6.02-5.11-13.52-1.76-0.51-0.65-0.54-1.7 8.89-3.59 15.48 3.06 1.93 1.95 2.71 2.76a0.82 0.81 61.9 0 0 0.77 0.24q7.85-1.68 10.69 4.87a0.75 0.75 0 0 1-0.69 1.06l-54.93 0.08z" fill="#442f68"/> <path d="m538.94 744.65q0.8 0.24 1.37 0.2a0.43 0.43 0 0 1 0.12 0.85l-1.98 0.43q-1.55-0.31-2.96-0.01a0.98 0.98 0 0 0-0.71 0.63q-4.66 13.06-16.67 20.5a3.73 3.67-62.3 0 1-1.71 0.55q-16.1 1.07-32.84-0.16-2.25-0.16-4.15-1.54-10.35-7.47-14.8-19.22-0.2-0.53-0.97-0.63l-0.01-1.69q-0.03-1.68-0.39-3.61-2.16-11.58 2.64-22.74 2.91-6.75 8.76-11.98a1.55 1.53-28.9 0 0 0.46-1.55q-2.82-10.43-0.26-20.33c1.93-7.46 7.23-11.58 14.13-14.28a0.69 0.69 0 0 0 0.41-0.81c-1.33-5.23-0.8-10.3 1.15-15.43q1.27-3.33 0.82-7.59-0.97-9.28-1.16-10.37-3.76-21.37-5.64-42.62-1.47-16.54 0.82-28.5c1.07-5.63 1.67-11.41 1.26-15.01q-2.71-23.95-2.86-26.18a0.75 0.75 0 0 0-0.59-0.69c-5.39-1.16-7.98-2.62-12.78-5.37a1.96 1.95-39.5 0 0-1.59-0.15q-5.93 2-12.7 3.74c-7.04 1.8-15.02 1.39-23.67 2.02-5.42 0.4-9.69 2.21-13.97 4.48a0.23 0.23 0 0 0-0.09 0.31q15.84 29.38 23.61 62.12c2.19 9.22 3.04 18.65 5.51 28q1.91 7.23 2.16 8.85c1.27 8.58-0.47 16.21-3.05 24.48q-0.85 2.72-2.13 13.15-0.23 1.86-5.06 56.07-1.21 13.58-1.14 23.12 0 0.65 0.41 0.77 0.08 0.82-0.13 1.67l1.32 9.71a0.53 0.53 0 0 0 0.6 0.46q2.73-0.33 4.13 2.16c2.93 5.22 5.35 6.48 10.98 9.85q13.38 8.02 31.95 13.38 7.72 2.23 4.54 10.37-7.08 7.15-18.84 6.64a0.39 0.39 0 0 0-0.33 0.62q3 4.12-0.23 8.4c-4.02 5.34-11.28 6.45-17.85 6.89-12.35 0.83-27.7-0.9-38.62-1.07-10.11-0.15-21.01 2.25-30.89-0.58-8.85-2.53-5.54-9.94-2.98-15.66q0.44-0.98 0.33-4.53l2.24-9.78a0.8 0.8 0 0 0-0.31-0.83c-2.55-1.85-5.29-5.06-4-8.18q0.69-1.68 3.13-1.43c1.23 0.13 2.78 2.36 4.12 3.1a0.98 0.98 0 0 0 1.43-0.65q1.38-6.19 1.03-12.49-0.8-14.57-0.96-15.9a0.63 0.63 0 0 0-0.63-0.56l-19.67 0.11q-0.83-0.18-1.13-0.3a0.54 0.54 0 0 1 0.18-1.04l4.7-0.15 15.78-0.1a0.45 0.45 0 0 0 0.45-0.5q-1.66-15.63-5.43-38.9-3.1-19.09 3.61-37.72 4.18-11.59 6.1-16.9c2.31-6.39 0.11-11.83-3.58-17.29q-4.03-5.97-10.85-14.77c-15.52-20.02-30.48-41.73-42.41-64.45-7.63-14.5-12.96-31.58-7.84-47.9 7.21-23.01 27.75-34.44 50.43-38.81q21.16-4.08 29.77-5.99 6.38-1.41 18.07-5.98c10.07-3.93 20.9-10.15 31.37-14.93q5.34-2.43 12.36-5.75 19.48-9.21 40.67-10.43a0.37 0.36 49.9 0 0 0.06-0.72q-7.11-1.69-11.91-6.87a0.89 0.89 0 0 1 0.85-1.48c7.99 1.81 15.78-3.45 20.13-9.81q5.57-8.14 8.11-19.38c3.46-15.32 5.53-28.71 15.62-39.55 7.65-8.22 19.97-12.43 30.37-6.74q6.75 3.69 8.79 10.5 1.85 6.14 2.35 8.43a0.68 0.67-4.9 0 0 0.64 0.53c18.63 0.61 33.82 20.25 32.73 38.34q-0.31 5.06-2.81 7.64a3.14 3.1 74.1 0 0-0.79 1.44c-1.08 4.56-3.8 11.3-7.06 14.56q-3.53 3.55-3.96 4.01a8.06 8.03 71.1 0 0-2.04 4.18q-0.51 3.26-0.97 9.11c-0.53 6.89-3.51 4.12-7.8 3.37a1.03 1 24.1 0 0-0.96 0.35c-0.58 0.7-1.38 2.14-2.5 2.85q-3.07 1.96-4.23 3.37a1.76 1.72 13.1 0 1-0.97 0.59c-3.24 0.7-5.06 4.59-7.64 5.57q-4.5 1.7-8.56-2.1-4.48-4.2-6.94-8.75a0.94 0.94 0 0 0-1.28-0.37q-8.28 4.63-16.41 9.81c-2.26 1.43-5.41 3.6-5.9 6.22q-0.14 0.76 0.35 2.31c4.44 14.02 0.4 25.94-5.02 38.99-0.66 1.6-1.11 3.97-1.23 5.11-2.08 19.86-3.01 31.63-7.01 47.35q-0.23 0.87 0.15 4.38 1.75 16.41-0.5 29.24c-3.22 18.37-7.3 38.65-9.34 57.24-0.48 4.31-0.51 8.66 0.33 13.33 1.5 8.42 2.38 12.15 2.42 17.91a2.11 2.1 25.6 0 0 0.45 1.27c5.12 6.45 5.15 16.17 4.06 23.54q-0.47 3.23-0.49 3.9a1.29 1.26 22 0 0 0.45 1.03q17.88 15.58 12.98 38.83a0.56 0.55 13.8 0 0 0.4 0.65q1.26 0.34 2.72 0.22z" fill="#050104"/> <path d="m540.29 356.59q2.09-4.21 2.79-5.31 9.63-15.02 27.92-10.93c7.2 1.61 9.86 8.55 11.75 15.19a0.76 0.76 0 0 1-0.66 0.96q-6.83 0.62-12.96 2.88a4.14 4.12 32.6 0 1-1.2 0.26q-4.81 0.3-6.78 2.06-7.39 6.65-10.59 12.38c-2.7 4.85-5.31 11.56-6.36 18.26q-0.7 4.43-1.93 10.43-1.16 5.66-3.77 8.7-3.36 3.91-7.77 6.76-4.12 2.67-5.19 3.58a2.9 2.9 0 0 1-1.35 0.64q-10.58 1.87-19.46-3.99a0.43 0.42-34.4 0 1 0.15-0.77c4.14-0.88 8.74-2.38 11.97-5.54q9.75-9.54 12.51-21.06 4.51-18.85 4.93-20.29 1.77-6.07 1.78-6.09a12.08 11.95-21.7 0 1 1.17-2.68q2.11-3.54 3.05-5.44z" fill="#442f68"/> <path d="m569.68 361.09q6.15-1.97 12.81-2.92 0.77-0.11 0.96 0.43a0.36 0.36 0 0 1-0.27 0.47l-13.43 2.52a0.22 0.21-15.1 0 1-0.25-0.14v-0.01a0.28 0.28 0 0 1 0.18-0.35z" fill="#442f68"/> <path d="m615.21 402.25c-6.4-7.26-14.4-2.01-22.1 1.24a0.62 0.46-53.3 0 1-0.1 0.03l-9.61 2.09a2.61 2.52 19.5 0 0-1.01 0.46l-7.51 5.83a1.26 1.26 0 0 1-1.94-0.54l-0.24-0.61a1.65 1.58-46.3 0 1 0-0.83c1.51-5.61 2.46-12.53-4.84-13.67a2.78 2.73 41 0 0-1.16 0.07c-6.82 1.99-9.2 8.1-9.66 14.7a2.33 2.33 0 0 1-1.27 1.92q-5.91 2.99-13.22 2.97a1.19 1.18-82 0 1-1.13-1.51l2.7-9.47a2.61 1.95 69.4 0 0 0.06-0.33c1.9-18.04 5.25-36.39 25.57-41.59q4.29-1.1 11.88-1.8 6.05-0.56 10.75 1.17 8.79 3.25 14.54 8.84c5.29 5.15 7.94 12.39 9.79 20.04q1.24 5.09-0.38 10.74a0.65 0.65 0 0 1-1.12 0.25z" fill="#442f68"/> <path d="m567.18 361.71a0.18 0.18 0 0 1-0.1 0.24l-0.18 0.07a6.94 0.43-22.6 0 1-6.58 2.27l-0.04-0.11a6.94 0.43-22.6 0 1 6.24-3.06l0.18-0.08a0.18 0.18 0 0 1 0.24 0.1l0.24 0.57z" fill="#dec5e5"/> <path d="m907.16 552.02q-18.72-30.43-44.22-55.72c-15.63-15.51-31.55-29.02-47.69-43.17q-1.22-1.08-8.7-8.42-31.7-31.13-42.62-74.43 2.05 1.15 3.43 3.83 3.87 7.51 5.9 11.93c3.78 8.23 8.36 15.28 13.08 21.64 4.05 5.46 8 11.18 11.93 15.5q8.76 9.61 21.2 20.67 3.84 3.41 13.14 10.32c19.39 14.42 36.74 30.36 50.36 49.62q4.14 5.86 5.2 7.71c2.29 3.97 4.29 6.55 6.58 10.49q6.89 11.92 13.81 26.66a1.29 1.26 71.6 0 1-0.88 1.81q-0.53 0.1-0.52 1.56z" fill="#f2e6f4"/> <path d="m599.78 432.75q-3.07 3.95-2.56 8.25l-3.6-1.62a1.51 1.5 23.7 0 0-2.01 0.78q-0.97 2.27-3.59 3.9a1.26 1.25 55 0 1-1.66-0.3l-2.75-3.53a1.27 1.26-28.5 0 0-1.43-0.42l-0.03 0.01a1.02 1.02 0 0 0-0.47 1.38q1.25 2.49 3.8 4.1a0.59 0.59 0 0 1-0.12 1.06q-3.76 1.31-6.33 4.34c-2.5 2.93-5.53 3.36-8.33 0.8-5.69-5.18-11.23-13.7-11.62-21.73a0.96 0.96 0 0 0-1.08-0.91l-0.25 0.09a1.75 1.75 0 0 0-1.09 2.23l3.38 9.66a0.55 0.54-23.4 0 1-0.27 0.67q-5.34 2.71-17.05 10.2c-4.16 2.66-6.33 5.33-7.33 10.63q-0.73 3.83-1.47 6.07-6.18 18.74-10.45 30.05-0.34 0.9-0.42 1a0.96 0.96 0 0 1-1.7-0.5q-0.36-3.11 0.6-6.24 2.62-8.57 6.47-21.32 3.82-12.64 3.1-23.81-0.79-12.34-10.36-21.73a0.34 0.33-24.1 0 1 0.22-0.57q10.75-0.53 18.42-7.06a1.3 1.29 28.4 0 1 0.99-0.29q8.85 1.09 16.3-3.57a0.76 0.76 0 0 1 1.09 0.33q1.5 3.25 3.95 3.49a0.81 0.81 0 0 0 0.53-1.47c-6.23-4.21-3.05-15.76 3.34-17.97 2.84-0.99 5.32 0.5 5.64 3.56q0.42 4.03-1.85 8.24a1.11 1.1 47 0 0-0.03 1c1.24 2.56 2.91 5.09 5.84 2.99 2.57-1.83 5.6-5.73 10.02-6.73q7.49-1.7 15.24-5.48c4.14-2.02 9.59-2.66 12.61 0.96a1.74 1.72 31.7 0 1 0.36 1.49q-1.6 7.18-5.49 13.4c-1.72 2.75-4.28 4.27-6.42 6.77a2.55 2.54-18.3 0 0-0.54 1.07l-1.6 6.73z" fill="#fabcab"/> <path d="m593.06 412.8 0.02-0.07a1.3 1.29 6.2 0 1 1.18-0.94q6.38-0.32 11.07 5.88a1.66 1.66 0 0 1-0.11 2.13l-0.08 0.09a1.1 1.1 0 0 1-1.75-0.19q-3.53-5.88-9.56-5.88a0.8 0.8 0 0 1-0.77-1.02z" fill="#050104"/> <path d="m540.44 412.9c-0.35 3.06-3.19 4.68-5.83 6.16a0.2 0.19-81.9 0 1-0.23-0.31l5.92-5.91a0.08 0.08 0 0 1 0.14 0.06z" fill="#dec5e5"/> <path d="m598.95 420.62a3.47 1.84-41.8 0 1-1.3604 3.6846 3.47 1.84-41.8 0 1-3.8132 0.9412 3.47 1.84-41.8 0 1 1.3604-3.6846 3.47 1.84-41.8 0 1 3.8132-0.9412z" fill="#050104"/> <path d="m526.5 466.26q-1-9.21-0.98-16.42c0.04-10.27-4.77-16.96-12.28-23.26a0.43 0.43 0 0 1 0.29-0.76c9.67 0.11 14.71 12.21 15.74 20.12q1.4 10.64-1.77 20.42a0.52 0.51-39.2 0 1-1-0.1z" fill="#4e3b5e"/> <path d="m495.16 690.23a0.14 0.14 0 0 1-0.13-0.23l7.08-7.07a0.62 0.62 0 0 0 0-0.88l-0.42-0.42a0.76 0.76 0 0 0-1.08 0l-7.85 7.85a1.9 1.9 0 0 1-2.68 0l-0.64-0.64a1.4 1.4 0 0 1 0.18-2.13q0.91-0.65 2.9-1.78c3.02-1.72 1.02-7.02 0.05-10.33-2.15-7.35-2.53-14.46 0.54-21.44a4.56 4.42 58.6 0 0 0.37-1.64q0.21-5.94-0.29-9-2.73-16.91-4.99-34-1.74-13.2-2.16-24.52-0.37-9.91 2.22-25.24 0.71-4.17-0.04-12.03-0.73-7.76-2.75-27.22-1.13-10.86 0.7-31.76 0.58-6.6-1.85-17.29a1.57 1.56 83.5 0 0-1.52-1.22h-0.3a0.68 0.68 0 0 0-0.66 0.86q2.1 7.59 1.97 14.6a0.84 0.83-80 0 1-1.1 0.77c-9.82-3.27-17.42-11.44-22.34-20.59q-3.74-6.96-3.28-15.47 0.32-5.85 4.77-8.22 17.29-9.21 34.31-12.87 8.55-1.84 12.26-0.94c9.8 2.38 14.77 13.65 15.16 23a0.34 0.34 0 0 1-0.64 0.17l-3.36-6.8a1.74 1.74 0 0 0-2.33-0.78l-0.34 0.17a0.96 0.95 56.2 0 0-0.29 1.49c9.25 10.52 9.07 26.71 5.35 39.61-1.43 4.96-5.46 12.88-5.44 20.51q0.07 24.58-4.56 47.31a8.64 8.6 44.8 0 0 0.02 3.58q3.18 14.56 1.07 29.66-3.45 24.61-4.96 36.29-1.25 9.61-1.57 25.98-0.12 6.24 1.18 12.3 2.24 10.51 3.92 17.8 0.84 3.63-1.98 5.71-3.96 2.9-6.2 5.06-0.87 0.84-2.41 1.07a0.34 0.34 0 0 1-0.27-0.6l7.51-6.16a1.27 1.27 0 0 0 0.33-1.54l-0.13-0.26a0.46 0.45 58.9 0 0-0.67-0.17l-5.74 4.15a0.66 0.52-4.7 0 0-0.15 0.14c-2.34 2.57-3.86 4.56-6.77 5.16z" fill="#fabcab"/> <path d="m599.78 432.75q0.4 8.3-2.56 8.25-0.51-4.3 2.56-8.25z" fill="#dec5e5"/> <path d="m301.65 554.96q0.97 0.6 2.49 0.87c-13.25 4.77-22.82 10.03-28.08 23.92-1.85 4.88-8.6 6.7-11.58 1.23a1.16 1.16 0 0 0-1.76-0.33q-3.75 3.1-6.27 7.07-10.63 16.75-5.16 35.84a0.75 0.75 0 0 0 1.42 0.06q4.07-10.47 9.27-18.91c8.31-13.5 17.95-25.99 30.46-35.55 4.03-3.09 9.66-6.38 13.53-9.21a1.08 1.08 0 0 1 1.09-0.12l0.56 0.24a0.56 0.55-47.5 0 1 0.04 1q-7.93 4.23-15.44 10.65-26.12 22.35-38.72 54.39a0.44 0.44 0 0 0 0.37 0.6c5.88 0.5 12.33-2.09 18.63-4.79 12.02-5.14 21.29-14.89 26.78-26.47 1.61-3.41 2.88-8.11 2.74-12.43-0.08-2.32-2.74-4.35-3.04-6.85q-0.31-2.61 1.69-4.72 0.83 1.17 1.06 0.78-1.65 2.78-0.79 4.29c2.24 3.88 3.71 5.91 2.64 10.82-3.45 15.91-12.61 26.15-26.9 34.77q-9.68 5.85-23.84 6.48a0.76 0.76 0 0 0-0.67 0.5q-11.84 32.91-13.98 68.12a0.21 0.21 0 0 0 0.19 0.22q0.7 0.07 1.48-0.25a0.18 0.16-9.1 0 0 0.11-0.14q2.25-21.26 13.34-38.99a5.36 5.35-26.2 0 0 0.8-2.35c1.57-15.65 13.28-27.34 28.33-30.17q4.38-0.83 7.42 1.17 1.7 1.12 2.92 1.12c3.83 0.01 7.47-0.99 11.13-1.03 8.4-0.08 16.91 4.47 23.12 10.17q1.76 1.61 2.28 2.96a2.25 2.24 64.1 0 1-0.95 2.76c-4.54 2.67-11.32 6.33-16.83 5.53a2.94 2.81-22 0 1-1.28-0.51c-3.39-2.44-8.08-5.51-10.77-0.07q-0.58 1.18-2.47 5.81c-1.98 4.82-9.71 5.93-14.35 5.93q-23.69 0.01-27.19-0.12a1.04 1.02-69.1 0 0-0.81 0.37q-1.4 1.67-3.86 6.71-4.93 10.11-7.91 21.82-1 3.94-1.29 8.36a0.92 0.92 0 0 0 1.74 0.46c3.96-8.27 7.39-14.98 15.8-19.49a2.66 2.61 3.5 0 0 0.91-0.79q0.45-0.63 1.08-1.82c1.88-3.57 6.12-5.87 9.93-6.83q9.62-2.4 18.92 1.69c10.73 4.71 17.81 13.72 21.96 24.33q0.8 2.02 0.65 3.96a1.49 1.49 0 0 1-2.02 1.27q-1.18-0.45-2.04-1.07c-7.12-5.12-13.35-10.39-22.77-9.52q-1.02 0.1-7.27 1.53c-8.47 1.95-13.79-4.38-17.58-10.79a0.96 0.95-29.9 0 0-1.29-0.34c-6.79 3.84-11.32 10.52-14.4 17.73a0.39 0.39 0 0 0 0.36 0.54q1.08 0.01 25.92-0.21 3.28-0.03 3.18 2.64-0.18 5.04-0.39 8.66a1.67 1.56-3.6 0 1-1.39 1.47q-0.91 0.15-1.47 0.48a1.02 1.02 0 0 0-0.47 0.69l-5.17 32.28a0.85 0.84 4.9 0 0 0.83 0.98l28.91 0.02q-1.12 0.67-1.75 1.89l-27.55 0.04a1.19 1.18 3.3 0 0-1.17 1.03q-0.73 5.38-2.03 12.18-0.42 2.19-1.85 2.89-2.73 1.34-7.47 2.01-18.36 2.61-36.84-0.02-4.52-0.64-7.52-1.92a3.48 3.46-83.4 0 1-2.06-2.61l-2.18-12.94a0.87 0.87 0 0 0-0.87-0.73l-79.56 0.22-5.19-0.07a0.84 0.84 0 0 1-0.45-1.55q0.66-0.43 1.75-0.38l83.08 0.01a0.62 0.62 0 0 0 0.61-0.72l-5.6-33.22a0.4 0.4 0 0 0-0.31-0.33q-1.35-0.3-1.9-0.32a1.09 1.09 0 0 1-1.06-1.09v-9.87a1.52 1.52 0 0 1 1.52-1.52h30.86a0.63 0.62-1.3 0 0 0.63-0.65c-0.49-10.86-3.11-24.05-13.71-28.91a0.25 0.25 0 0 0-0.33 0.33c2.61 5.29 1.89 11.34-4.01 13.95-3.7 1.63-9.53 1.43-13.17 3.03q-5.17 2.27-8.68 6.12-7.08 7.76-11.92 17.15a1.06 1.06 0 0 1-1.94-0.14c-4.41-12.74-1.52-28.77 8.04-38.52 6.62-6.76 17.04-10.65 25.91-6.2q2.78 1.39 5.28 2.3 4.33 1.59 5.54 2.64c8.06 7.02 10.44 17.53 10.64 27.92a0.78 0.78 0 0 0 0.66 0.75l0.12 0.02a0.56 0.56 0 0 0 0.64-0.56c-0.23-19.77-3.49-39.03-11.81-56.96-2.13-4.59-4.81-8.58-7.7-12.69a0.31 0.31 0 0 0-0.52 0.01c-4.98 7.59-14.97 9.26-23.67 10.27-8.75 1-19.12-0.47-25.48-6.99q-0.95-0.98-4.66-5.57-5.62-6.95-14.28-5.15c-4.05 0.84-9.53 4.75-13.56 5.65q-5.32 1.19-10.05-1.05a2.07 2.06-62.6 0 1-0.91-2.89c4.03-7.12 9.98-11.38 17.38-16.03 3.85-2.42 6.11-5.52 9.71-8.04q11.24-7.86 24.59-4.88c3.59 0.8 5.87 2.85 8.1 5.26 4.21 4.56 9.77 2.16 14.3 1.06a6.24 6.19 48 0 1 3.55 0.2c9.42 3.38 14.25 15.99 15.78 24.95a5.03 4.89-68.8 0 0 0.88 2.08q3.13 4.27 3.44 4.73c7.07 10.65 10.38 21.59 13.46 34.23q3.73 15.31 3.18 31.88a0.17 0.16-86.2 0 0 0.14 0.17l0.35 0.05a0.29 0.29 0 0 0 0.33-0.29c-0.11-7.65-0.09-15.48-1.34-23.09q-0.9-5.48-1.08-8.02c-1.78-24.86-5.19-49.06-13.25-72.48a1 0.98 79.5 0 0-0.96-0.67c-11.49 0.3-25.17-6.95-34.32-13.62-9.01-6.58-17.13-17.66-21.41-27.81q-1.09-2.58-0.97-6.63a3.38 3.28 59.5 0 1 0.33-1.36q2.14-4.41 2.41-5.49c1.97-8.18-5.53-10.56-9.5-15.5q-7.99-9.97-11.7-22.07a1.29 1.29 0 0 1 1.47-1.64c3.34 0.61 6.42 1.97 9.49 3.16q17 6.54 31.26 17.92c4.89 3.89 7.44 7.14 8.96 12.83 0.83 3.11 1.34 6.73 3.46 7.63q1.32 0.56 2.32-0.79 2.72-3.69 6.14-2.27 3.01 1.24 5.57 4.7 6.65 8.94 10.73 20.54c3.39 9.64 3.95 19.71-1.56 28.74a1.56 1.56 0 0 0-0.15 1.31q6.6 20.45 9.07 34.79 3.06 17.75 5.09 42.59a0.19 0.18-3.1 0 0 0.2 0.17h0.03a0.15 0.15 0 0 0 0.14-0.15c-0.07-10.91-0.77-25.25-0.29-36.83 1.1-26.54 4.07-53.2 10.52-79.14a1.36 1.35 34.3 0 0-0.22-1.14c-12.86-17.36-11.12-41.9 0.12-59.4q4.29-6.69 11.1-6.14 3.6 0.29 4.91-0.34c8.55-4.14 3.72-14.93 5.1-22.45 2.63-14.39 18.9-24.77 31.95-28.77a1.99 1.99 0 0 1 2.36 1.01q0.47 0.92 0.49 2.6c0.23 14.65-5.34 27.57-10.56 41.39q-1.61 4.27-0.53 9.37c0.64 3.01 2.74 5.82 4.11 8.54 2.06 4.09 1.84 8.62 0.23 12.86-2.36 6.21-5.63 12.08-10.41 17.21q-15.52 16.63-36.19 24.93a0.94 0.91 87.1 0 0-0.55 0.63c-7.62 30.41-10.5 61.45-10.6 93.04q-0.02 4.24 0.17 47.62c1.9-22.42 6.17-45.56 14.6-66.4a1.56 1.54 42.7 0 0-0.06-1.3q-1.82-3.6-2.55-7.83-3.59-20.75 10.21-36.78 1.9-2.22 4.27-3.5a2.37 2.37 0 0 1 3.12 0.8q0.52 0.8 1.65 2.03c1.72 1.87 5.22 0.26 5.98-1.34 3.04-6.42 5.46-12.29 11.53-16.67q7.66-5.52 16.52-8.42z" fill="#4e3b5e"/> <path d="m247.86 550.21q0.03-0.23 0.16-0.69 7.98-27.32 14.19-42.07c8.51-20.17 17.4-39.38 29.39-57.23a1.02 1.02 0 0 0-0.44-1.51l-0.32-0.14a0.83 0.83 0 0 0-1.05 0.35q-15.14 26.07-18.73 34.12-1.47 3.28-4.96 10.92c-3.4 7.42-6.98 17-9.29 22.82-4.47 11.21-6.82 19.38-10.71 32.85a0.69 0.69 0 0 1-1.25 0.18q-8.11-12.74-7.22-28.21c0.54-9.22 4.6-27.56 13.62-32.38q1.16-0.62 4.1-0.39 10.59 0.85 12.5-9.76c0.55-3.04 0-7.87-0.21-10.52q-0.69-8.5 5.21-15.23c6.01-6.86 15.69-13.83 25.2-16.22a0.68 0.68 0 0 1 0.85 0.61c1.15 14.95-6.32 30.89-10.5 42.89q-2.55 7.33 1.01 13.76c1.74 3.15 3.82 5.73 4.12 9.36q0.27 3.32-0.89 6.16-3.75 9.13-10.35 17.05-5.14 6.16-15.11 13.03-9.46 6.51-18.43 10.9a0.63 0.62 81 0 1-0.89-0.65z" fill="#c1a4ce"/> <path d="m455.44 443.99a0.37 0.37 0 0 1 0.51 0.45q-2.44 7.11-0.4 13.82 3.57 11.7 10.34 18.3 7.4 7.22 16.24 11.18a2.26 2.26 0 0 1 1.34 2.25q-1.09 14.46-0.11 29.52a0.88 0.88 0 0 1-1.04 0.93c-7.25-1.36-12.83-6.08-17.27-11.99q-0.36-0.47-1.02-0.84a0.83 0.83 0 0 0-1.05 1.23l4.55 5.88a0.45 0.45 0 0 1-0.36 0.73h-0.59a0.57 0.57 0 0 1-0.45-0.22c-3.53-4.51-8.26-8.38-11.12-12.47q-15.28-21.87-16.99-48.91a1.83 1.82-15 0 1 1.01-1.74l16.41-8.12z" fill="#594583"/> <path d="m464.19 516.25q-3.96 2-8.99 2.57a1.63 1.62 60.2 0 1-1.19-0.33c-8.76-6.82-13.28-14.97-18.46-25.03-5.66-10.99-7.98-22.98-8.1-35.24a1.01 1-13.4 0 1 0.57-0.92l7.11-3.52a0.87 0.86-13.2 0 1 1.25 0.77q-0.01 7.1 1.41 13.43 3.02 13.57 8.8 25.28 1.79 3.62 5.22 8.25c4.64 6.28 7.27 10.52 12.43 14.03a0.42 0.41-41.3 0 1-0.05 0.71z" fill="#594583"/> <path d="m394.82 466.67a0.29 0.29 0 0 1 0.14-0.5q15.66-2.47 29.86-7.75a0.39 0.38-9.3 0 1 0.52 0.37c-0.21 6.16 0.24 12.75 2.01 18.82 4.98 17.13 11.66 30.24 24.17 41.81a0.35 0.35 0 0 1-0.22 0.61l-25.04 1.59a0.37 0.37 0 0 1-0.37-0.23q-5.2-13.34-10.1-24.68c-4.9-11.34-11.18-21.9-20.97-30.04z" fill="#fabcab"/> <path d="m537.74 466.59c2.25 10.92-0.89 22.13-5.77 32.42a10.97 10.65-26.4 0 0-0.79 2.24q-1.36 5.77-1.39 6.62-0.99 23.16-6.24 44.27a12.34 12.28-42.5 0 0-0.22 4.86c2.6 16.64-0.47 33.22-3.87 49.86q-4.13 20.22-6.1 40.26-0.43 4.35 0.63 10.14 1.58 8.65 2.66 16.54a0.35 0.34 22.6 0 1-0.62 0.25l-1.45-1.87a0.81 0.8 64.1 0 0-0.82-0.29q-1.12 0.27-1.42-0.97-0.54-2.25-2.78-12.39-1.21-5.46-1.03-12.62 0.49-19.05 2.94-35.66 3.86-26.15 4.16-28.69 1.33-11.04-0.7-21.29c-0.84-4.23-1.33-6.85-0.32-11.3q3.56-15.68 3.67-32.49a2.31 2.28 59.3 0 1 0.25-1q0.27-0.51 2.19-2.52 0.95-1 2.13-3.58 4.36-9.58 11.35-29.65 2.17-6.21 3.09-13.12a0.23 0.23 0 0 1 0.45-0.02z" fill="#fabcab"/> <path d="m408.42 530.61q-0.4 0.35-1.16 0.45-2.05-3.26-3.84-6.72-2.19-4.23-8.47-10.56a0.68 0.68 0 0 0-1.11 0.21l-0.2 0.46a0.76 0.75-56 0 0 0.16 0.83q3.47 3.45 3.86 4.04 9.49 14.57 12.92 22.84c4.05 9.76 6.96 19 10.35 28.38 2.22 6.12 4.15 13.14 5.46 19.69q6.42 32.09 7.86 38.17a17.83 17.6-51.8 0 1 0.46 4.1q-0.06 8.22-0.08 8.43c-0.28 3.24-1.57 8.67-3.42 13.19q-2.18 5.31-2.77 8.09-0.85 3.97-3.91 26.8-1.25 9.34-4.73 31.49-2.88 18.34-3.41 40.2a0.83 0.83 0 0 1-0.67 0.8q-9.5 1.98-18.41 0.85c-1.07-5.84-1.11-12.03-1.17-16.97-0.1-8.68-1.04-16.41-1.94-25.08-0.88-8.61-1.15-17.16-1.41-25.75q-0.32-10.72 1.44-17.05 3.95-14.21 7.13-26.08 0.89-3.31 0.78-9.64a4.26 4.24 36.7 0 0-0.16-1.08l-3.18-11.01a4.65 4.6 22.9 0 0-0.38-0.92c-4.02-7.23-7.97-12.79-11.78-20.03q-4.91-9.33-12.56-20.78-3.75-5.6-17.38-30.34c-8.33-15.1-13.13-30.03-12.26-47.46 0.54-10.55 5.5-20.51 10.85-29.15 1.34-2.17 3.27-3.96 5.12-5.77q7.66-3.76 16.09-4.65a6 5.98-59.1 0 0 1.66-0.42q4.2-1.71 9.95-1.54a1.63 1.57 29.6 0 0 0.9-0.23q2.88-1.76 4.86-0.05 7.78 6.73 13 15.55 6.91 11.67 11.39 24.31c1.55 4.38 3.25 7.86 5.2 12.61q0.88 2.13-1.19 3.04-7.1 3.09-13.85 6.75z" fill="#594583"/> <path d="m360.41 475.24c-1.85 1.81-3.78 3.6-5.12 5.77-5.35 8.64-10.31 18.6-10.85 29.15-0.87 17.43 3.93 32.36 12.26 47.46q13.63 24.74 17.38 30.34 7.65 11.45 12.56 20.78c3.81 7.24 7.76 12.8 11.78 20.03a4.65 4.6 22.9 0 1 0.38 0.92l3.18 11.01a4.26 4.24 36.7 0 1 0.16 1.08q0.11 6.33-0.78 9.64-3.18 11.87-7.13 26.08-1.76 6.33-1.44 17.05c0.26 8.59 0.53 17.14 1.41 25.75 0.9 8.67 1.84 16.4 1.94 25.08 0.06 4.94 0.1 11.13 1.17 16.97l-4.06-0.69a0.81 0.8-2.3 0 1-0.64-0.59q-0.42-1.73-0.6-4.07c-0.72-9.47-1.17-19.84-3.08-30.16q-0.12-0.67-2.12-13.85c-1.65-10.91-3.05-21.19-1.33-31.59q0.94-5.67 4.57-15.43 3.2-8.62 5.15-15.47 2-7.03-1.02-13.3-2.28-4.73-5.23-8.55-7.9-10.22-18.2-24.35-9.59-13.16-14.92-21.75-12.93-20.8-13.94-22.54c-6.57-11.27-11.75-22.86-12.87-35.77q0-0.02-0.26-5.98c-0.34-7.49 2.33-15.36 6.06-21.93 2.11-3.71 4.58-5.98 7.99-9.41 5.37-5.43 10.39-9.31 17.6-11.68z" fill="#442f68"/> <path d="m145.02 499.98c10.22 3.02 19.8 8.12 29.46 13.88 5.67 3.39 14.07 9.15 16.15 15.52q1.31 4.02 2.53 7.72 1.18 3.59 3.21 4.42c5 2.05 5.85-7.26 11.04-1.43q10.52 11.82 14.31 27.93 2.44 10.41-1.95 20.25a0.64 0.64 0 0 1-1.17-0.01c-9.03-21.74-22.35-41.18-38.78-58.07q-5.02-5.16-20.26-18.33a1.48 1.48 0 0 0-1.88-0.05l-0.32 0.25a0.56 0.56 0 0 0 0.01 0.9q9.09 6.62 15.19 12.48c18.18 17.45 33.29 37.34 42.9 60.35q0.84 2 1.96 3.91a0.64 0.64 0 0 1-0.65 0.96c-8.25-1.25-17.13-3.81-24.44-8.16q-19.64-11.68-29.06-32.73-0.83-1.85-0.84-4.62a4.2 4.19-31.5 0 1 0.46-1.91q1.99-3.9 2.29-5.29 1.43-6.74-2.9-10.54-12.48-10.97-17.97-26.69a0.58 0.57-1.3 0 1 0.71-0.74z" fill="#c1a4ce"/> <path d="m519.35 501.77a0.54 0.54 0 0 1 0.74-0.37l1.68 0.72a1.19 1.19 0 0 1 0.71 1.19q-0.31 3.44-2.74 7.06a0.61 0.61 0 0 1-1.12-0.29q-0.32-3.93 0.73-8.31z" fill="#4e3b5e"/> <path d="m463.63 744.56-24.94-0.1q-0.41-0.12-0.41-0.77-0.07-9.54 1.14-23.12 4.83-54.21 5.06-56.07 1.28-10.43 2.13-13.15c2.58-8.27 4.32-15.9 3.05-24.48q-0.25-1.62-2.16-8.85c-2.47-9.35-3.32-18.78-5.51-28q-7.77-32.74-23.61-62.12a0.23 0.23 0 0 1 0.09-0.31c4.28-2.27 8.55-4.08 13.97-4.48 8.65-0.63 16.63-0.22 23.67-2.02q6.77-1.74 12.7-3.74a1.96 1.95-39.5 0 1 1.59 0.15c4.8 2.75 7.39 4.21 12.78 5.37a0.75 0.75 0 0 1 0.59 0.69q0.15 2.23 2.86 26.18c0.41 3.6-0.19 9.38-1.26 15.01q-2.29 11.96-0.82 28.5 1.88 21.25 5.64 42.62 0.19 1.09 1.16 10.37 0.45 4.26-0.82 7.59c-1.95 5.13-2.48 10.2-1.15 15.43a0.69 0.69 0 0 1-0.41 0.81c-6.9 2.7-12.2 6.82-14.13 14.28q-2.56 9.9 0.26 20.33a1.55 1.53-28.9 0 1-0.46 1.55q-5.85 5.23-8.76 11.98-4.8 11.16-2.64 22.74 0.36 1.93 0.39 3.61z" fill="#f2e6f4"/> <path d="m407.26 531.06q0.76-0.1 1.16-0.45-0.1 0.62 0.02 0.68 0.66 0.35 1.48 0 2.28-0.96 5.3-2.65a1.08 1.07-29.2 0 1 1.45 0.4c3.58 6.34 7 13.67 9.43 21.05q1.1 3.37 3.08 7.67 6.73 14.63 9.6 28.99 0.76 3.78 1.77 7.4 1.57 5.66 2.66 13.52c0.72 5.2 2.61 10.84 3.74 15.62q2.27 9.67-0.35 18.96c-1.48 5.25-2.72 10.41-3.24 14.25-1.42 10.33-1.86 18.78-3 30.09q-2.52 25.1-3.85 49.41-0.27 5.12 0.15 9.94a1.06 1.05 85.5 0 1-0.98 1.15l-15.88 1.01a1.09 1.08 2.3 0 1-1.15-1.24q1.22-8.55 2.72-22.47c1.32-12.33 3.95-25.56 5.76-38.54a3.06 3 60.4 0 1 0.17-0.64q0.54-1.38 0.59-2.71 0.11-2.86 2.18-16.38 0.72-4.67 2.24-8.69c1.86-4.91 3.33-10.1 4.26-14.31q1.58-7.23-0.19-14.12-2.92-11.41-4.42-22.5-0.97-7.21-2.92-14.35-6.08-22.29-7.7-27.47-4.86-15.56-14.08-33.62z" fill="#442f68"/> <path d="m301.73 572.23q-0.23 0.39-1.06-0.78c2.88-2.79 6.81-2.89 9.73-5.58q5.57-5.12 8.2-11.63a0.86 0.85 9.8 0 0-0.83-1.17q-7.12 0.32-13.63 2.76-1.52-0.27-2.49-0.87 7.71-2.79 15.72-3.41 1.47-0.11 2.2 0.15a1.36 1.35-70.2 0 1 0.81 1.74q-2.89 7.94-9.07 13.53a4.41 4.15-78.7 0 1-0.73 0.52l-8.85 4.74z" fill="#442f68"/> <path d="m300.67 571.45q-2 2.11-1.69 4.72c0.3 2.5 2.96 4.53 3.04 6.85 0.14 4.32-1.13 9.02-2.74 12.43-5.49 11.58-14.76 21.33-26.78 26.47-6.3 2.7-12.75 5.29-18.63 4.79a0.44 0.44 0 0 1-0.37-0.6q12.6-32.04 38.72-54.39 7.51-6.42 15.44-10.65a0.56 0.55-47.5 0 0-0.04-1l-0.56-0.24a1.08 1.08 0 0 0-1.09 0.12c-3.87 2.83-9.5 6.12-13.53 9.21-12.51 9.56-22.15 22.05-30.46 35.55q-5.2 8.44-9.27 18.91a0.75 0.75 0 0 1-1.42-0.06q-5.47-19.09 5.16-35.84 2.52-3.97 6.27-7.07a1.16 1.16 0 0 1 1.76 0.33c2.98 5.47 9.73 3.65 11.58-1.23 5.26-13.89 14.83-19.15 28.08-23.92q6.51-2.44 13.63-2.76a0.86 0.85 9.8 0 1 0.83 1.17q-2.63 6.51-8.2 11.63c-2.92 2.69-6.85 2.79-9.73 5.58z" fill="#c1a4ce"/> <path d="m496.95 553.98a0.41 0.41 0 0 1 0.46-0.35l0.87 0.11a0.82 0.79 7.2 0 1 0.71 0.88l-1.3 10.26a0.82 0.79 7.2 0 1-0.91 0.68l-0.86-0.11a0.41 0.41 0 0 1-0.36-0.46l1.39-11.01z" fill="#050104"/> <path d="m89.43 588.69q1.14 4.31 1.13 6.42-0.09 20.75 1.91 42.18c2.3 24.5 8.44 48.34 16.57 71.42 2.19 6.2 5.64 14.02 9.29 21.23q3.22 6.36 5.56 12.96a0.81 0.8 75.1 0 1-0.61 1.06l-2.49 0.46q-1.09-0.05-1.75 0.38a0.84 0.84 0 0 0 0.45 1.55l5.19 0.07 1.93 0.62a1.05 1.02 86.3 0 1 0.62 0.56q0.42 0.94 0.46 1.02 3.13 5.2 12.79 19.57c2.64 3.92 5 8.39 7.63 11.7 8.34 10.48 15.7 18.26 27.76 30.64q4.49 4.61 9.5 9.17 8.05 7.32 9.9 8.76 19.02 14.83 34.41 23.82 33.13 19.33 75.07 29.72 6.53 1.62 11.45 2.21 9.55 1.16 11.57 1.52 4.39 0.78 15.08 1.61 8.93 0.69 15.08 0.93 17.23 0.7 38.82-0.99 32.23-2.51 67.78-8.19 6.35-1.02 9.43-0.32-55.04 12.86-115.7 11.5c-56.25-1.25-113.13-16.56-160.34-47.43-52.35-34.24-89.68-86.99-103.44-148.34-7.68-34.25-8.7-70.95-5.05-105.81z" fill="#fff"/> <path d="m923.01 589.54q9.83 25.24 12.44 51.27 3.72 37.01-7.53 72.14c-22.84 71.37-89.22 114.59-160.62 126.69q-0.64 0.04-0.9-0.09a0.57 0.57 0 0 1 0.09-1.07c6.58-1.79 12.43-3.28 19.64-6.34q20.46-8.65 38.08-18.95 21.76-12.7 40.48-30.05 6.8-6.31 14.12-14.8 9.09-10.54 12.9-15.87 0.95-1.32 4.13-6.27l5.45-0.09 1.76-0.04a0.82 0.82 0 0 0 0.13-1.63q-1.06-0.2-2.46 0.15l-1.93-0.2q-0.15-2.31 1.02-4.32 29.3-50.56 27.12-108.54-0.21-5.62-1.98-20.99-1.18-10.28-1.94-21z" fill="#fff"/> <path d="m210.29 621.83a0.21 0.2-72.6 0 1-0.35 0.19c-17.68-18.3-42.8-18.79-65.95-11.94a0.94 0.94 0 0 0-0.48 1.48l0.32 0.4a0.91 0.9-29.2 0 0 1.05 0.29q23.33-9.28 46.49-0.46 10.93 4.16 18.7 12.99a0.82 0.81 38.6 0 1 0.11 0.93c-4.98 9.07-21.81 10.26-31.43 9.44-6.58-0.56-12.05-3.22-16.18-8.08-6.64-7.83-13.04-13.03-23.78-7.78-5.97 2.91-10.33 5.24-16.99 3.62a1.05 1.04-66.5 0 1-0.62-1.59c4.7-7.16 9.86-10.75 17.8-15.35 2.93-1.69 6.37-6.25 9.57-8.4 5.25-3.52 12.11-4.41 18.44-4.17 5.41 0.2 7.67 1.94 11.96 6.33a3.69 3.64 83.3 0 0 0.71 0.57q3.36 2.11 7.84 1.6c2.23-0.26 4.63-1.33 6.72-1.43 8.41-0.41 14.94 15 16.07 21.36z" fill="#dec5e5"/> <path d="m898.79 744.39 1.93 0.2-2.03 0.45a0.37 0.37 0 0 0 0.03 0.73l2.57 0.34-5.45 0.09-76.88 0.02a0.53 0.53 0 0 0-0.52 0.61l1.52 9.02a0.73 0.73 0 0 1-0.72 0.85h-21.27a0.79 0.78-3.7 0 1-0.78-0.68l-1.25-9.03a0.79 0.79 0 0 0-0.78-0.69h-198.51a0.58 0.57 4 0 0-0.57 0.49l-1.28 9.05a0.95 0.95 0 0 1-0.94 0.82h-21.14a0.59 0.58 4.2 0 1-0.59-0.67l1.31-9.29a0.38 0.37-86 0 0-0.37-0.43l-34.62-0.14 1.98-0.43a0.43 0.43 0 0 0-0.12-0.85q-0.57 0.04-1.37-0.2l34.24-0.32a0.63 0.62 3.2 0 0 0.61-0.54l14.07-99.58a0.73 0.72 4.1 0 0-0.72-0.82h-20.32a0.93 0.93 0 0 1-0.93-0.93v-12.84a0.7 0.7 0 0 1 0.7-0.7h4.05a0.59 0.59 0 0 0 0.58-0.68c-0.79-5.01-0.76-10.96 5.48-10.93q0.57 0 21.55-0.07 32.82-0.11 215.85 0.16 4.23 0.01 5.47 1.23c2.74 2.71 1.59 6.53 1.85 9.64a0.69 0.67 87.2 0 0 0.67 0.62h3.23a1.22 1.22 0 0 1 1.22 1.22v12.47a0.77 0.77 0 0 1-0.77 0.77h-20.87a0.58 0.58 0 0 0-0.58 0.66l13.76 99.9a0.61 0.6-3.8 0 0 0.6 0.52l80.11-0.04z" fill="#4e3b5e"/> <path d="m696.26 619.13q58.6 0.02 117.2-0.01c4.26 0 6.21 0.29 6.17 5.21q-0.02 2.53-0.07 3.79a0.91 0.91 0 0 1-0.91 0.87q-45.82-0.17-122.39-0.2-76.58-0.03-122.4 0.1a0.91 0.91 0 0 1-0.91-0.87q-0.05-1.26-0.06-3.79c-0.04-4.92 1.91-5.21 6.17-5.2q58.6 0.07 117.2 0.1z" fill="#c1a4ce"/> <path d="m256.29 652.97q-0.11-0.99 0.25-2.16 5.46-17.9 24.26-23.05c2.82-0.78 4.96-0.9 8.1 0.61 5.05 2.41 10.44-0.16 15.5 0.31q13.87 1.31 22.65 11.07a0.95 0.95 0 0 1-0.28 1.49c-4.87 2.45-9.89 5.77-14.35 5.57a2.62 2.62 0 0 1-1.41-0.5c-4.14-3.03-8.32-5.56-12.41-0.65-2.75 3.29-2.11 8.05-7.24 10.4q-3.02 1.39-8.11 1.5-5.21 0.11-26.27-0.31a0.58 0.58 0 0 1-0.46-0.91q11.86-16.86 32.4-20.66 12.32-2.28 24.58 0.87a0.8 0.8 0 0 0 0.61-1.47q-1.78-1.05-3.89-1.3c-16.69-1.97-31.35-0.16-44.82 10.53-3.88 3.08-6.36 5.15-8.71 8.75a0.22 0.22 0 0 1-0.4-0.09z" fill="#c1a4ce"/> <path d="m792.95 641.65-62.49-0.09-162.54 0.12a0.51 0.51 0 0 1-0.51-0.51v-9.97a0.43 0.42 90 0 1 0.42-0.43h256.68a0.4 0.4 0 0 1 0.4 0.4v9.95a0.62 0.61 0 0 1-0.62 0.61l-31.34-0.08z" fill="#dec5e5"/> <path d="m792.95 641.65q3.94-0.15 8.61 1.42l-9.71 0.1a0.6 0.59-4.2 0 0-0.59 0.68l1.65 11.38 0.08 0.99q-0.85 0.28-1.95-0.22l-1.54-12.35a0.54 0.53 86.3 0 0-0.53-0.47h-5.35a0.36 0.36 0 0 0-0.36 0.41l11.38 81.62q-0.51 0.72-1.48 0.85l-2.55-18.12a0.3 0.29 22.3 0 0-0.07-0.16q-0.61-0.69-2-0.31-1.69-0.1-2.18-1.12a0.37 0.37 0 0 1 0.31-0.52q0.6-0.02 1.12-0.24 1.14 0.2 2.01-0.08a0.74 0.73 77 0 0 0.5-0.81l-0.78-5.71a0.85 0.84-3.9 0 0-0.84-0.73l-16.38-0.02-13.34-0.23a0.26 0.26 0 0 1-0.25-0.26v-0.36a0.25 0.25 0 0 1 0.24-0.25l13.27-0.66 16.21-0.01a0.47 0.46 86.2 0 0 0.46-0.53l-7.18-52.13a0.66 0.66 0 0 0-0.65-0.57l-73.34 0.08q-0.45-0.57-0.49-1.05a0.54 0.54 0 0 1 0.53-0.57l22.7-0.14 62.49 0.09z" fill="#442f68"/> <path d="m791.04 656 13.9 98.61a0.31 0.31 0 0 1-0.31 0.35h-5.43a0.41 0.4 85.9 0 1-0.4-0.35l-4.16-29.4-11.38-81.62a0.36 0.36 0 0 1 0.36-0.41h5.35a0.54 0.53 86.3 0 1 0.53 0.47l1.54 12.35z" fill="#dec5e5"/> <path d="m584.75 755.09h-10.05a0.59 0.59 0 0 1-0.59-0.67l15.61-110.48a0.59 0.59 0 0 1 0.58-0.51h10.05a0.59 0.59 0 0 1 0.59 0.67l-15.61 110.48a0.59 0.59 0 0 1-0.58 0.51z" fill="#dec5e5"/> <path d="m707.72 643.32 73.34-0.08a0.66 0.66 0 0 1 0.65 0.57l7.18 52.13a0.47 0.46 86.2 0 1-0.46 0.53l-16.21 0.01-168.43 0.04a0.52 0.52 0 0 1-0.52-0.59l7.36-52.07a0.65 0.65 0 0 1 0.64-0.56l96.45 0.02z" fill="#f2e6f4"/> <path d="m801.56 643.07q1.73 3.03 2.06 9.2-5.83 0.21-10.71 2.96l-1.65-11.38a0.6 0.59-4.2 0 1 0.59-0.68l9.71-0.1z" fill="#c1a4ce"/> <path d="m592.98 755.04a0.37 0.37 0 0 1-0.4184 0.3142l-4.9897-0.7101a0.37 0.37 0 0 1-0.3142-0.4185l15.775-110.84a0.37 0.37 0 0 1 0.4184-0.3142l4.9897 0.7101a0.37 0.37 0 0 1 0.3142 0.4185l-15.775 110.84z" fill="#dec5e5"/> <path d="m803.62 652.27 14.15 102.08a0.57 0.56-4 0 1-0.56 0.64h-9.84a0.73 0.73 0 0 1-0.72-0.63l-13.66-98.14-0.08-0.99q4.88-2.75 10.71-2.96z" fill="#dec5e5"/> <path d="m207.29 665.36q-6.99 1.29-9.84 3.06-11.98 7.4-18.17 21.94a1.63 1.61-56.1 0 0 0.34 1.78l0.19 0.18a0.5 0.5 0 0 0 0.82-0.15c5.32-11.94 11.16-20.57 23.29-24.23 2.9-0.87 7.49-1.99 9.08 1.44 3.27 7.01-1.2 11.03-7.58 12.17q-2.15 0.38-6.19 1.41c-10.7 2.74-16.01 11.33-22.13 21.38q-0.35 0.58-0.95 1.06a0.35 0.34-28.2 0 1-0.55-0.16q-1.83-6.1-1.03-11.74c1.99-13.96 7.95-26.67 22.99-29.57q5.42-1.04 9.78 0.97a0.24 0.24 0 0 1-0.05 0.46z" fill="#c1a4ce"/> <path d="m262.91 675.86a0.28 0.28 0 0 1-0.32-0.44c5.34-6.47 16.14-7.51 23.42-5.35q6.31 1.88 13.27 8.11 8.22 7.37 11.41 18.28a0.44 0.44 0 0 1-0.69 0.48q-5.34-4.01-10.36-7.02-6.66-3.98-14.42-2.93c-5.66 0.76-11.99 4.26-17.31-1.37q-2.8-2.98-5.6-7a0.59 0.59 0 0 1 0.21-0.86c7.39-3.87 18.64-2.41 26.1 0.62q2.6 1.05 8.39 4.48a0.53 0.53 0 0 0 0.8-0.45v-0.41a1.41 1.4 17.8 0 0-0.59-1.14q-11.18-7.94-25.44-7.28c-3.18 0.15-5.82 1.08-8.87 2.28z" fill="#c1a4ce"/> <path d="m490.03 673.4 1.72 5.95a3.16 3.16 0 0 1-1.19 3.43c-7.74 5.58-4.2 18.82-1.83 26.74 1.38 4.6-1.52 9.23-6.69 8.35a3.09 3.08 85.7 0 1-2.42-2.09q-2.95-9.05-3.87-19.03-0.43-4.6 0.17-8.33c1.07-6.54 5.98-14.2 12.94-15.72a1.01 1-14 0 1 1.17 0.7z" fill="#594583"/> <path d="m514.96 677.29q0 1.32-1.01 2.46a0.14 0.14 0 0 1-0.24-0.12q0.22-1.18 0.22-2.34 0-1.17-0.22-2.35a0.14 0.14 0 0 1 0.25-0.12q1 1.15 1 2.47z" fill="#dec5e5"/> <path d="m520.39 702.31a0.25 0.24-71.7 0 1-0.34 0.18l-8.14-3.51a0.39 0.39 0 0 1-0.24-0.4c0.39-3.33 0.91-8.93-0.77-11.26a1.06 1.05-35.4 0 1 0.26-1.49q3.73-2.58 5.49-7.04a0.47 0.46-54.5 0 1 0.79-0.14c5.28 6.22 4.68 16.12 2.95 23.66z" fill="#442f68"/> <path d="m488.6 691.23c3.96 1.66 9.33 0.64 14.76-0.11a4.28 4.21-63.3 0 0 1.56-0.53q1.55-0.88 3.09-2.07 0.69-0.53 1.53-0.18a0.82 0.81 11.4 0 1 0.5 0.75v8.51a0.86 0.85 6.9 0 1-1.06 0.83q-10.26-2.49-20.09 0.32a0.55 0.54-9.8 0 1-0.7-0.49l-0.41-6.44a0.6 0.59-80.5 0 1 0.82-0.59z" fill="#f2e6f4"/> <path d="m772.3 698.24 16.38 0.02a0.85 0.84-3.9 0 1 0.84 0.73l0.78 5.71a0.74 0.73 77 0 1-0.5 0.81q-0.87 0.28-2.01 0.08l-185.22 0.11a0.62 0.62 0 0 1-0.61-0.71l0.83-5.9a0.91 0.91 0 0 1 0.9-0.78l168.61-0.07z" fill="#dec5e5"/> <path d="m272.38 707.52a0.81 0.81 0 0 1-0.8086 0.8114l-73.3 0.128a0.81 0.81 0 0 1-0.8114-0.8086l-0.0131-7.5a0.81 0.81 0 0 1 0.8086-0.8114l73.3-0.128a0.81 0.81 0 0 1 0.8114 0.8086l0.0131 7.5z" fill="#f2e6f4"/> <path d="m526.65 756.71c-4.25 0.44-9.15 1.77-12.72 1.81-11.91 0.16-24.87-4.21-32.17-13.92-2.62-3.49-4.98-9.55-6.54-13.29-3.08-7.41-2.14-13.91-0.45-22.49q1.44 1.64 2.17 4.31 1.01 3.73 1.6 4.47c5.3 6.65 14.05-0.85 12.32-7.72q-1.28-5.05-1.78-8.33a0.7 0.7 0 0 1 0.51-0.78c10.47-2.83 22.97-1.62 31.61 5.51q15.44 12.73 13.24 33.02-1.09 10.08-7.79 17.41z" fill="#594583"/> <path d="m788.54 707.47q1.39-0.38 2 0.31a0.3 0.29 22.3 0 1 0.07 0.16l2.55 18.12 2.5 17.64a0.62 0.61-4 0 1-0.61 0.7h-198.06a0.5 0.5 0 0 1-0.49-0.57l5.03-35.58a0.89 0.88 3.7 0 1 0.88-0.77l186.13-0.01z" fill="#f2e6f4"/> <path d="m474.77 708.82c-1.69 8.58-2.63 15.08 0.45 22.49 1.56 3.74 3.92 9.8 6.54 13.29 7.3 9.71 20.26 14.08 32.17 13.92 3.57-0.04 8.47-1.37 12.72-1.81q-1.97 2.82-6.01 6.18c-2.73 2.26-3.93 2.88-7.43 3.17q-2.22 0.18-23.14 0.02-5.43-0.04-8.19-1.16a5.72 5.45 70.8 0 1-1.03-0.53q-14.46-9.29-16.13-27.4-1.46-15.79 10.05-28.17z" fill="#442f68"/> <path d="m268.33 710.15a0.91 0.9-85.4 0 1 0.89 1.05l-7.66 47.78a2.74 2.73 87.7 0 1-2.05 2.22c-12.3 2.98-24.35 3.43-38.05 2.12q-6.01-0.58-11.15-2.22a2.22 2.19 4.2 0 1-1.52-1.74l-8.24-48.89a0.28 0.27 85.5 0 1 0.27-0.32h67.51z" fill="#c1a4ce"/> <path d="m372.8 744.67-4.7 0.15a0.54 0.54 0 0 0-0.18 1.04q0.3 0.12 1.13 0.3l-75.27 0.11q0.63-1.22 1.75-1.89l77.27 0.29z" fill="#442f68"/> <path d="m463.63 744.56 0.01 1.69-25.08-0.12q0.21-0.85 0.13-1.67l24.94 0.1z" fill="#442f68"/> <path d="m901.29 746.11-2.57-0.34a0.37 0.37 0 0 1-0.03-0.73l2.03-0.45q1.4-0.35 2.46-0.15a0.82 0.82 0 0 1-0.13 1.63l-1.76 0.04z" fill="#050104"/> <path d="m166.86 745.41a0.62 0.62 0 0 1-0.62 0.62h-22.38a0.62 0.62 0 0 1-0.62-0.62v-0.04a0.62 0.62 0 0 1 0.62-0.62h22.38a0.62 0.62 0 0 1 0.62 0.62v0.04z" fill="#442f68"/> <path d="m293.78 746.27 75.27-0.11 19.67-0.11a0.63 0.63 0 0 1 0.63 0.56q0.16 1.33 0.96 15.9 0.35 6.3-1.03 12.49a0.98 0.98 0 0 1-1.43 0.65c-1.34-0.74-2.89-2.97-4.12-3.1q-2.44-0.25-3.13 1.43c-1.29 3.12 1.45 6.33 4 8.18a0.8 0.8 0 0 1 0.31 0.83l-2.24 9.78q-39.39 0.3-78.68 4.41-13.16 1.38-24.4 3.7c-4.03 0.83-9.63 2.03-11.82 4.55a1.93 1.92 40.4 0 0 0.23 2.74q2.09 1.73 5.2 2.64 8.59 2.52 14.11 3.37 27 4.17 51.94 5.37c13.04 0.64 30.46 1.71 46.01 1.92 16.48 0.23 29.38 0.92 44.33 0.85q3.01-0.01 15.16 0.07 22.65 0.15 71-1.7 24.3-0.93 55.01-3.7 15.59-1.4 29.86-4.63c2.91-0.66 11.75-2.38 11.15-6.3a1.44 1.39-74.8 0 0-0.48-0.87q-1.57-1.3-3.29-1.94-6.63-2.48-14.53-3.71-14.56-2.26-30.18-3.62-35.7-3.11-71.21-3.86 3.18-8.14-4.54-10.37-18.57-5.36-31.95-13.38c-5.63-3.37-8.05-4.63-10.98-9.85q-1.4-2.49-4.13-2.16a0.53 0.53 0 0 1-0.6-0.46l-1.32-9.71 25.08 0.12q0.77 0.1 0.97 0.63 4.45 11.75 14.8 19.22 1.9 1.38 4.15 1.54 16.74 1.23 32.84 0.16a3.73 3.67-62.3 0 0 1.71-0.55q12.01-7.44 16.67-20.5a0.98 0.98 0 0 1 0.71-0.63q1.41-0.3 2.96 0.01l34.62 0.14a0.38 0.37-86 0 1 0.37 0.43l-1.31 9.29a0.59 0.58 4.2 0 0 0.59 0.67h21.14a0.95 0.95 0 0 0 0.94-0.82l1.28-9.05a0.58 0.57 4 0 1 0.57-0.49h198.51a0.79 0.79 0 0 1 0.78 0.69l1.25 9.03a0.79 0.78-3.7 0 0 0.78 0.68h21.27a0.73 0.73 0 0 0 0.72-0.85l-1.52-9.02a0.53 0.53 0 0 1 0.52-0.61l76.88-0.02q-3.18 4.95-4.13 6.27-3.81 5.33-12.9 15.87-7.32 8.49-14.12 14.8-18.72 17.35-40.48 30.05-17.62 10.3-38.08 18.95c-7.21 3.06-13.06 4.55-19.64 6.34a0.57 0.57 0 0 0-0.09 1.07q0.26 0.13 0.9 0.09c-28.36 5.34-51.35 4.77-84.55 4.98q-70.68 0.44-138.12 16.29-22.82 5.36-52.43 13.56-6.26 1.73-18.24 4.3-3.08-0.7-9.43 0.32-35.55 5.68-67.78 8.19-21.59 1.69-38.82 0.99-6.15-0.24-15.08-0.93-10.69-0.83-15.08-1.61-2.02-0.36-11.57-1.52-4.92-0.59-11.45-2.21-41.94-10.39-75.07-29.72-15.39-8.99-34.41-23.82-1.85-1.44-9.9-8.76-5.01-4.56-9.5-9.17c-12.06-12.38-19.42-20.16-27.76-30.64-2.63-3.31-4.99-7.78-7.63-11.7q-9.66-14.37-12.79-19.57-0.04-0.08-0.46-1.02a1.05 1.02 86.3 0 0-0.62-0.56l-1.93-0.62 79.56-0.22a0.87 0.87 0 0 1 0.87 0.73l2.18 12.94a3.48 3.46-83.4 0 0 2.06 2.61q3 1.28 7.52 1.92 18.48 2.63 36.84 0.02 4.74-0.67 7.47-2.01 1.43-0.7 1.85-2.89 1.3-6.8 2.03-12.18a1.19 1.18 3.3 0 1 1.17-1.03l27.55-0.04z" fill="#dec5e5"/> <path d="m419.39 749.69q8.47 0.63 16.8-0.95a0.48 0.47-8.5 0 1 0.56 0.41l1.08 7.81a1.27 1.27 0 0 1-0.26 0.95c-4.87 6.21-8.63 9.94-16.27 10.65a1.9 1.89-12.1 0 1-1.97-1.27q-0.8-2.3-0.89-5.27-0.13-3.9 0.05-11.53a0.83 0.83 0 0 1 0.9-0.8z" fill="#fabcab"/> <path d="m422.9 771.37a0.34 0.33-38.9 0 1 0.07-0.63q5.83-1.28 10.55-5.07c2.62-2.11 4.06-4.73 6.34-7.07a1.62 1.62 0 0 1 2.44 0.14l3.97 5.13a1.71 1.7 54.2 0 1-0.39 2.45q-1.37 0.91-2.85 3.81a0.96 0.95 80 0 0 1.55 1.09c1.63-1.76 3.27-4.01 4.83-4.02a0.9 0.9 0 0 1 0.79 1.35l-2.12 3.68a0.97 0.97 0 0 0 0.51 1.4l0.04 0.01a1.38 1.38 0 0 0 1.67-0.63q2.69-4.86 5.24-3.13a1.32 1.25 41.1 0 1 0.19 2.01q-1.78 1.59-1.67 3.57a0.55 0.55 0 0 0 0.96 0.33l2.31-2.64a1.72 1.69 13.2 0 1 0.87-0.53q1.41-0.34 2.41 0.64a0.83 0.82-55.8 0 1 0.17 0.93c-0.68 1.52-1.82 3.18-1.65 4.45a0.77 0.77 0 0 0 1.25 0.49q1.47-1.2 2.57-3.33a1.33 1.32-60.9 0 1 1.87-0.54c6.7 4.06 12.96 5.66 22.21 8.18 2.12 0.58 5.7 3.15 3.3 5.42a1.75 1.67 13.5 0 1-0.71 0.41c-4.33 1.23-8.65 0.94-13.07 1.48q-3.87 0.48-8.8-0.1-3.15-0.37-4.6-0.25-1.41 0.12-11.14-0.9-2.9-0.31-5.75-1.52-9.46-4.03-16.95-9.41-1.65-1.18-2.73-3.6-1.07-2.4-3.68-3.6z" fill="#442f68"/> <path d="m416.04 763.65a0.45 0.45 0 0 1 0.52 0.34l1.71 6.86a0.89 0.87 59.3 0 1-0.19 0.79q-5.27 6.04-6.37 7.01c-3.99 3.49-9.71 6.2-14.7 4.2-1.73-0.7-3.5-3.68-5.32-5.96a1.47 1.47 0 0 1-0.32-1.07l1.23-11.78a0.18 0.18 0 0 1 0.21-0.16q11.76 1.79 23.23-0.23z" fill="#fabcab"/> <path d="m441.09 787.57 1.56 0.51a1.1 1.1 0 0 1 0.54 1.71l-2.54 3.38a0.63 0.63 0 0 0 0.3 0.97l0.31 0.1a1 0.99-62.3 0 0 1.1-0.35l2.6-3.41a1.26 1.25-55.5 0 1 1.66-0.31c6.98 4.36 13.02 5.78 23.57 8.88a2.04 1.98-14.1 0 1 0.85 0.49q0.65 0.64 1.06 1.6a1.86 1.86 0 0 1-1.09 2.48c-11.55 4.1-22.59 3.13-34.77 1.81q-3.31-0.36-11.62-2.05c-7.7-1.56-14.91-2.12-22.36-1.44-5.39 0.5-18.81 2.15-17.54-7.45q0.92-6.93 3.73-16.67a0.75 0.75 0 0 1 1.36-0.2q2.72 4.22 6.6 6.88a2.91 2.87-20.1 0 0 0.94 0.43q6.11 1.6 11-1.33 4.88-2.92 6.27-5.06 2.3-3.55 5.13-5.86a1.89 1.89 0 0 1 2.46 0.05l2.04 1.82a2.7 2.67 4.8 0 1 0.42 0.49l3.21 4.92a0.71 0.69-39.1 0 1-0.1 0.89q-2.22 2.13-3.39 3.77-0.6 0.84-0.52 1.3a0.95 0.79-26.3 0 0 1.47 0.35q1.34-1.07 3.54-3.45a2.48 2.46 30.3 0 1 2.58-0.67l0.45 0.15a0.84 0.84 0 0 1 0.3 1.43q-1.88 1.72-2.69 4.11a0.81 0.72-76.8 0 0 0.57 1.05c1.54 0.19 2.5-1.87 3.74-3.59a1.7 1.7 0 0 1 2.06-0.57l1.39 0.6a1.1 1.1 0 0 1 0.42 1.71q-3.25 4.01-1.36 4.56a0.61 0.6-64 0 0 0.66-0.23l2.23-3.18a1.65 1.65 0 0 1 1.86-0.62z" fill="#594583"/> <path d="m382.39 775.76a0.14 0.14 0 0 1 0.03-0.2l0.07-0.05a2.46 2.2 53.4 0 1 3.23 0.67l0.16 0.22a2.46 2.2 53.4 0 1-0.29 3.29l-0.07 0.05a0.14 0.14 0 0 1-0.19-0.03l-2.94-3.95z" fill="#dec5e5"/> <path d="m455.01 791.65q1.52 0.1 10.75 1.03 12.24 1.24 24.15-1.74a0.32 0.32 0 0 1 0.31 0.53c-4.46 4.87-14.95 5.26-21.26 5.22a1.21 1.09-32.1 0 1-0.4-0.07l-13.65-4.47a0.26 0.26 0 0 1 0.1-0.5z" fill="#fff"/> <path d="m382.67 792.77q0.11 3.55-0.33 4.53c-2.56 5.72-5.87 13.13 2.98 15.66 9.88 2.83 20.78 0.43 30.89 0.58 10.92 0.17 26.27 1.9 38.62 1.07 6.57-0.44 13.83-1.55 17.85-6.89q3.23-4.28 0.23-8.4a0.39 0.39 0 0 1 0.33-0.62q11.76 0.51 18.84-6.64 35.51 0.75 71.21 3.86 15.62 1.36 30.18 3.62 7.9 1.23 14.53 3.71 1.72 0.64 3.29 1.94a1.44 1.39-74.8 0 1 0.48 0.87c0.6 3.92-8.24 5.64-11.15 6.3q-14.27 3.23-29.86 4.63-30.71 2.77-55.01 3.7-48.35 1.85-71 1.7-12.15-0.08-15.16-0.07c-14.95 0.07-27.85-0.62-44.33-0.85-15.55-0.21-32.97-1.28-46.01-1.92q-24.94-1.2-51.94-5.37-5.52-0.85-14.11-3.37-3.11-0.91-5.2-2.64a1.93 1.92 40.4 0 1-0.23-2.74c2.19-2.52 7.79-3.72 11.82-4.55q11.24-2.32 24.4-3.7 39.29-4.11 78.68-4.41z" fill="#c1a4ce"/> <path d="m471.58 805.91c-1.42 4.27-11.48 6.18-15.4 6.48-15.56 1.23-31.96-1.67-46.13-0.75-5.23 0.34-29.73 2.99-28.54-5.83q0.34-2.54 1.65-5.43a0.26 0.25 36.5 0 1 0.42-0.06c2.98 3.34 8.27 4.23 12.42 4.11 7.59-0.21 16.07-1.27 24.12 0.24 18.19 3.4 35.29 7.15 51.09 0.89a0.28 0.28 0 0 1 0.37 0.35z" fill="#fff"/> <path d="m736.21 845.87q-16.93 5.53-34.46 7.86-13.66 1.81-27.47 3.27c-17.39 1.83-33.74 2.4-51.88 3.42q-9.28 0.52-24.29 1.78-41.29 3.45-60.05 6.15-15.57 2.24-24.9 2.65 84.11-23.98 167.34-24.54 40.14-0.26 55.71-0.59z" fill="#dec5e5"/> </svg>